<svg xmlns="http://www.w3.org/2000/svg" xmlns:xlink="http://www.w3.org/1999/xlink" width="1080" height="1080" viewBox="0 0 1080 1080" fill="none">
<rect x="0" y="0" width="0" height="0" fill="rgba(249, 249, 249, 1)" />
<path     fill="#FFFFFF" fill-opacity="0" d="M0 1080L1080 1080L1080 0L0 0L0 1080Z">
</path>
<circle cx="540" cy="540" r="540"   fill="#12A594" >
</circle>
<g >
<path     fill="#222222"  d="M516.824 946.695L478.855 946.695L478.855 187.32L841.141 187.32L841.141 225.289L516.824 225.289L516.824 263.258L841.141 263.258L841.141 301.227L516.824 301.227L516.824 339.195L841.141 339.195L841.141 377.164L516.824 377.164L516.824 493.18L815.828 493.18L815.828 531.148L516.824 531.148L516.824 569.117L815.828 569.117L815.828 607.086L516.824 607.086L516.824 645.055L815.828 645.055L815.828 683.023L516.824 683.023L516.824 946.695ZM440.887 946.695L402.918 946.695L402.918 187.32L440.887 187.32L440.887 946.695ZM364.949 946.695L326.98 946.695L326.98 187.32L364.949 187.32L364.949 946.695ZM289.012 946.695L251.043 946.695L251.043 187.32L289.012 187.32L289.012 946.695Z">
</path>
</g>
</svg>
